# Blender 5.0.1
# www.blender.org
mtllib House.mtl
o Cube.001
v -2.496544 5.474293 2.500000
v -2.496544 5.674293 2.500000
v -2.496544 5.474293 -2.500000
v -2.496544 5.674293 -2.500000
v 2.503456 5.474293 2.500000
v 2.503456 5.674293 2.500000
v 2.503456 5.474293 -2.500000
v 2.503456 5.674293 -2.500000
v -2.496544 7.397504 0.000000
v -2.496544 7.597504 0.000000
v 2.503456 7.397504 0.000000
v 2.503456 7.597504 0.000000
v 2.000000 6.000000 -2.000000
v 2.000000 -0.000000 -2.000000
v 2.000000 6.000000 2.000000
v 2.000000 -0.000000 2.000000
v -2.000000 6.000000 -2.000000
v -2.000000 -0.000000 -2.000000
v -2.000000 6.000000 2.000000
v -2.000000 -0.000000 2.000000
v -2.000000 -0.000000 0.000000
v 2.000000 7.587219 0.000000
v -2.000000 7.587219 0.000000
v 2.000000 -0.000000 0.000000
v 1.907141 3.497265 1.456247
v 1.907141 5.309559 1.456247
v 1.907141 3.497265 0.456247
v 1.907141 5.283642 0.456247
v 2.107142 3.497265 1.456247
v 2.107142 5.309559 1.456247
v 2.107142 3.497265 0.456247
v 2.107142 5.283642 0.456247
v 1.907141 3.497265 0.622914
v 1.907141 3.497265 0.789581
v 1.907141 3.497265 0.956247
v 1.907141 3.497265 1.122914
v 1.907141 3.497265 1.289581
v 1.907141 5.497265 1.289581
v 1.907141 5.606568 1.122914
v 1.907141 5.658806 0.956247
v 1.907141 5.606568 0.789581
v 1.907141 5.497265 0.622914
v 2.107142 3.497265 1.289581
v 2.107142 3.497265 1.122914
v 2.107142 3.497265 0.956247
v 2.107142 3.497265 0.789581
v 2.107142 3.497265 0.622914
v 2.107142 5.497265 0.622914
v 2.107142 5.606568 0.789581
v 2.107142 5.658806 0.956247
v 2.107142 5.606568 1.122914
v 2.107142 5.497265 1.289581
v 1.907141 3.497265 -0.349678
v 1.907141 5.309559 -0.349678
v 1.907141 3.497265 -1.349678
v 1.907141 5.283642 -1.349678
v 2.107142 3.497265 -0.349678
v 2.107142 5.309559 -0.349678
v 2.107142 3.497265 -1.349678
v 2.107142 5.283642 -1.349678
v 1.907141 3.497265 -1.183011
v 1.907141 3.497265 -1.016345
v 1.907141 3.497265 -0.849678
v 1.907141 3.497265 -0.683011
v 1.907141 3.497265 -0.516344
v 1.907141 5.497265 -0.516345
v 1.907141 5.606568 -0.683011
v 1.907141 5.658806 -0.849678
v 1.907141 5.606568 -1.016345
v 1.907141 5.497265 -1.183011
v 2.107142 3.497265 -0.516345
v 2.107142 3.497265 -0.683011
v 2.107142 3.497265 -0.849678
v 2.107142 3.497265 -1.016345
v 2.107142 3.497265 -1.183011
v 2.107142 5.497265 -1.183011
v 2.107142 5.606568 -1.016345
v 2.107142 5.658806 -0.849678
v 2.107142 5.606568 -0.683011
v 2.107142 5.497265 -0.516344
v 1.907141 -0.026188 0.503125
v 1.907141 2.684220 0.503125
v 1.907141 -0.026188 -0.496875
v 1.907141 2.658304 -0.496875
v 2.107142 -0.026188 0.503125
v 2.107142 2.684220 0.503125
v 2.107142 -0.026188 -0.496875
v 2.107142 2.658304 -0.496875
v 1.907141 -0.026188 -0.330209
v 1.907141 -0.026188 -0.163542
v 1.907141 -0.026188 0.003125
v 1.907141 -0.026188 0.169791
v 1.907141 -0.026188 0.336458
v 1.907141 2.871926 0.336458
v 1.907141 2.981230 0.169791
v 1.907141 3.033468 0.003125
v 1.907141 2.981230 -0.163542
v 1.907141 2.871926 -0.330209
v 2.107142 -0.026188 0.336458
v 2.107142 -0.026188 0.169791
v 2.107142 -0.026188 0.003125
v 2.107142 -0.026188 -0.163542
v 2.107142 -0.026188 -0.330209
v 2.107142 2.871926 -0.330209
v 2.107142 2.981230 -0.163542
v 2.107142 3.033468 0.003125
v 2.107142 2.981230 0.169791
v 2.107142 2.871926 0.336458
vn -1.0000 -0.0000 -0.0000
vn -0.0000 -0.0000 -1.0000
vn 1.0000 -0.0000 -0.0000
vn -0.0000 -0.0000 1.0000
vn -0.0000 -0.7926 -0.6097
vn -0.0000 0.7926 0.6097
vn -0.0000 0.7926 -0.6097
vn -0.0000 -0.7926 0.6097
vn -0.0000 0.7833 0.6216
vn -0.0000 -1.0000 -0.0000
vn -0.0000 0.7833 -0.6216
vn -0.0000 0.6640 0.7478
vn -0.0000 0.6151 -0.7884
vn -0.0000 0.8362 -0.5484
vn -0.0000 0.9542 -0.2991
vn -0.0000 0.9542 0.2991
vn -0.0000 0.8362 0.5484
vt 0.375000 0.125000
vt 0.625000 0.125000
vt 0.625000 0.250000
vt 0.375000 0.250000
vt 0.625000 0.500000
vt 0.375000 0.500000
vt 0.375000 0.625000
vt 0.625000 0.625000
vt 0.625000 0.750000
vt 0.375000 0.750000
vt 0.625000 1.000000
vt 0.375000 1.000000
vt 0.125000 0.625000
vt 0.125000 0.750000
vt 0.875000 0.625000
vt 0.875000 0.750000
vt 0.875000 0.500000
vt 0.125000 0.500000
vt 0.375000 0.000000
vt 0.625000 0.000000
vt 0.375000 0.208333
vt 0.625000 0.208333
vt 0.375000 0.708333
vt 0.625000 0.708333
vt 0.125000 0.708333
vt 0.875000 0.708333
vt 0.875000 0.541667
vt 0.625000 0.541667
vt 0.875000 0.583333
vt 0.625000 0.583333
vt 0.875000 0.666667
vt 0.625000 0.666667
vt 0.375000 0.541667
vt 0.125000 0.541667
vt 0.375000 0.583333
vt 0.125000 0.583333
vt 0.375000 0.625000
vt 0.375000 0.666667
vt 0.125000 0.666667
vt 0.625000 0.041667
vt 0.375000 0.041667
vt 0.625000 0.083333
vt 0.375000 0.083333
vt 0.625000 0.166667
vt 0.375000 0.166667
s 0
usemtl 
f 9/1/1 10/2/1 4/3/1 3/4/1
f 3/4/2 4/3/2 8/5/2 7/6/2
f 11/7/3 12/8/3 6/9/3 5/10/3
f 5/10/4 6/9/4 2/11/4 1/12/4
f 9/13/5 11/7/5 5/10/5 1/14/5
f 12/8/6 10/15/6 2/16/6 6/9/6
f 8/5/7 4/17/7 10/15/7 12/8/7
f 3/18/8 7/6/8 11/7/8 9/13/8
f 7/6/3 8/5/3 12/8/3 11/7/3
f 1/19/1 2/20/1 10/2/1 9/1/1
f 33/21/1 42/22/1 28/3/1 27/4/1
f 27/4/2 28/3/2 32/5/2 31/6/2
f 43/23/3 52/24/3 30/9/3 29/10/3
f 29/10/4 30/9/4 26/11/4 25/12/4
f 37/25/10 43/23/10 29/10/10 25/14/10
f 52/24/12 38/26/12 26/16/12 30/9/12
f 32/5/13 28/17/13 42/27/13 48/28/13
f 48/28/14 42/27/14 41/29/14 49/30/14
f 49/30/15 41/29/15 40/15/15 50/8/15
f 50/8/16 40/15/16 39/31/16 51/32/16
f 51/32/17 39/31/17 38/26/17 52/24/17
f 27/18/10 31/6/10 47/33/10 33/34/10
f 33/34/10 47/33/10 46/35/10 34/36/10
f 34/36/10 46/35/10 45/37/10 35/13/10
f 35/13/10 45/37/10 44/38/10 36/39/10
f 36/39/10 44/38/10 43/23/10 37/25/10
f 31/6/3 32/5/3 48/28/3 47/33/3
f 47/33/3 48/28/3 49/30/3 46/35/3
f 46/35/3 49/30/3 50/8/3 45/37/3
f 45/37/3 50/8/3 51/32/3 44/38/3
f 44/38/3 51/32/3 52/24/3 43/23/3
f 25/19/1 26/20/1 38/40/1 37/41/1
f 37/41/1 38/40/1 39/42/1 36/43/1
f 36/43/1 39/42/1 40/2/1 35/1/1
f 35/1/1 40/2/1 41/44/1 34/45/1
f 34/45/1 41/44/1 42/22/1 33/21/1
f 61/21/1 70/22/1 56/3/1 55/4/1
f 55/4/2 56/3/2 60/5/2 59/6/2
f 71/23/3 80/24/3 58/9/3 57/10/3
f 57/10/4 58/9/4 54/11/4 53/12/4
f 65/25/10 71/23/10 57/10/10 53/14/10
f 80/24/12 66/26/12 54/16/12 58/9/12
f 60/5/13 56/17/13 70/27/13 76/28/13
f 76/28/14 70/27/14 69/29/14 77/30/14
f 77/30/15 69/29/15 68/15/15 78/8/15
f 78/8/16 68/15/16 67/31/16 79/32/16
f 79/32/17 67/31/17 66/26/17 80/24/17
f 55/18/10 59/6/10 75/33/10 61/34/10
f 61/34/10 75/33/10 74/35/10 62/36/10
f 62/36/10 74/35/10 73/37/10 63/13/10
f 63/13/10 73/37/10 72/38/10 64/39/10
f 64/39/10 72/38/10 71/23/10 65/25/10
f 59/6/3 60/5/3 76/28/3 75/33/3
f 75/33/3 76/28/3 77/30/3 74/35/3
f 74/35/3 77/30/3 78/8/3 73/37/3
f 73/37/3 78/8/3 79/32/3 72/38/3
f 72/38/3 79/32/3 80/24/3 71/23/3
f 53/19/1 54/20/1 66/40/1 65/41/1
f 65/41/1 66/40/1 67/42/1 64/43/1
f 64/43/1 67/42/1 68/2/1 63/1/1
f 63/1/1 68/2/1 69/44/1 62/45/1
f 62/45/1 69/44/1 70/22/1 61/21/1
f 89/21/1 98/22/1 84/3/1 83/4/1
f 83/4/2 84/3/2 88/5/2 87/6/2
f 99/23/3 108/24/3 86/9/3 85/10/3
f 85/10/4 86/9/4 82/11/4 81/12/4
f 93/25/10 99/23/10 85/10/10 81/14/10
f 108/24/12 94/26/12 82/16/12 86/9/12
f 88/5/13 84/17/13 98/27/13 104/28/13
f 104/28/14 98/27/14 97/29/14 105/30/14
f 105/30/15 97/29/15 96/15/15 106/8/15
f 106/8/16 96/15/16 95/31/16 107/32/16
f 107/32/17 95/31/17 94/26/17 108/24/17
f 83/18/10 87/6/10 103/33/10 89/34/10
f 89/34/10 103/33/10 102/35/10 90/36/10
f 90/36/10 102/35/10 101/37/10 91/13/10
f 91/13/10 101/37/10 100/38/10 92/39/10
f 92/39/10 100/38/10 99/23/10 93/25/10
f 87/6/3 88/5/3 104/28/3 103/33/3
f 103/33/3 104/28/3 105/30/3 102/35/3
f 102/35/3 105/30/3 106/8/3 101/37/3
f 101/37/3 106/8/3 107/32/3 100/38/3
f 100/38/3 107/32/3 108/24/3 99/23/3
f 81/19/1 82/20/1 94/40/1 93/41/1
f 93/41/1 94/40/1 95/42/1 92/43/1
f 92/43/1 95/42/1 96/2/1 91/1/1
f 91/1/1 96/2/1 97/44/1 90/45/1
f 90/45/1 97/44/1 98/22/1 89/21/1
usemtl Material
f 22/8/9 23/15/9 19/16/9 15/9/9
f 16/10/4 15/9/4 19/11/4 20/12/4
f 21/1/1 23/2/1 17/3/1 18/4/1
f 21/13/10 24/7/10 16/10/10 20/14/10
f 24/7/3 22/8/3 15/9/3 16/10/3
f 18/4/2 17/3/2 13/5/2 14/6/2
f 14/6/3 13/5/3 22/8/3 24/7/3
f 18/18/10 14/6/10 24/7/10 21/13/10
f 20/19/1 19/20/1 23/2/1 21/1/1
f 13/5/11 17/17/11 23/15/11 22/8/11
